<svg width="18" height="18" viewBox="0 0 18 18" fill="none" xmlns="http://www.w3.org/2000/svg">
<g clip-path="url(#clip0_107_35)">
<path d="M14.4673 11.9076C13.8792 11.3271 13.1451 11.3271 12.5608 11.9076C12.115 12.3496 11.6693 12.7916 11.2311 13.2411C11.1112 13.3647 11.0101 13.3909 10.864 13.3085C10.5756 13.1512 10.2684 13.0238 9.99125 12.8515C8.69901 12.0387 7.61652 10.9937 6.65764 9.81758C6.18195 9.23326 5.75869 8.60774 5.46278 7.90356C5.40285 7.76123 5.41409 7.66759 5.53021 7.55148C5.97594 7.12073 6.41043 6.67874 6.84867 6.23676C7.45921 5.62248 7.45921 4.90331 6.84492 4.28529C6.49658 3.9332 6.14823 3.5886 5.79989 3.23651C5.44031 2.87693 5.08448 2.5136 4.72115 2.15777C4.13309 1.58469 3.39894 1.58469 2.81462 2.16151C2.36515 2.6035 1.9344 3.05672 1.47743 3.49121C1.05418 3.89199 0.840677 4.38267 0.795729 4.95575C0.724562 5.88842 0.953045 6.76864 1.27517 7.62639C1.9344 9.40182 2.93823 10.9787 4.15556 12.4245C5.79989 14.3798 7.7626 15.9267 10.0587 17.0429C11.0925 17.5448 12.1637 17.9306 13.3286 17.9943C14.1302 18.0392 14.8269 17.837 15.385 17.2115C15.767 16.7845 16.1978 16.3949 16.6023 15.9866C17.2016 15.3798 17.2053 14.6457 16.6098 14.0464C15.8981 13.331 15.1827 12.6193 14.4673 11.9076Z" fill="#000C5D"/>
<path d="M13.7518 8.92263L15.1339 8.68666C14.9167 7.41689 14.3174 6.26698 13.4072 5.35304C12.4445 4.39042 11.2272 3.78363 9.88627 3.59634L9.6915 4.98597C10.729 5.13205 11.6729 5.60026 12.4183 6.34564C13.1225 7.04981 13.5832 7.94128 13.7518 8.92263Z" fill="#000C5D"/>
<path d="M15.9131 2.9141C14.3175 1.31846 12.2986 0.310887 10.0699 0L9.87515 1.38963C11.8004 1.65931 13.5459 2.53205 14.9243 3.90669C16.2315 5.21392 17.0892 6.86574 17.4001 8.68237L18.7823 8.4464C18.4189 6.34135 17.4263 4.43108 15.9131 2.9141Z" fill="#000C5D"/>
</g>
<defs>
<clipPath id="clip0_107_35">
<rect width="18" height="18" fill="white"/>
</clipPath>
</defs>
</svg>
