<svg width="19" height="19" viewBox="0 0 19 19" fill="none" xmlns="http://www.w3.org/2000/svg">
<path fill-rule="evenodd" clip-rule="evenodd" d="M18.2894 10.9889C17.4262 15.884 12.7583 19.1525 7.86327 18.2894C2.96823 17.4262 -0.300291 12.7583 0.562838 7.86327C1.42597 2.96822 6.09389 -0.300296 10.9889 0.562834C15.884 1.42596 19.1525 6.09389 18.2894 10.9889ZM10.1528 7.16209C9.2275 7.36866 7.37368 7.807 4.59136 8.47713C4.14237 8.57 3.8938 8.69447 3.84565 8.85055C3.76427 9.11432 4.08333 9.2801 4.5178 9.50584C4.5769 9.53655 4.63813 9.56836 4.70078 9.60168C5.12739 9.82858 5.70579 10.108 6.02105 10.1707C6.30702 10.2275 6.64829 10.1656 7.04484 9.9851C9.74633 8.78116 11.1378 8.17721 11.2191 8.17325C11.2765 8.17046 11.3558 8.16819 11.3995 8.22339C11.4432 8.27859 11.4227 8.36493 11.4131 8.38737C11.3545 8.52412 9.81121 9.52303 9.01256 10.04C8.76359 10.2011 8.58699 10.3154 8.55029 10.3422C8.46808 10.4021 8.38523 10.4579 8.3056 10.5115C7.81371 10.8426 7.44484 11.091 8.11048 11.7201C8.43036 12.0224 8.6852 12.2707 8.93943 12.5184C9.2171 12.7889 9.49404 13.0588 9.85419 13.3975C9.94595 13.4838 10.0326 13.5719 10.1169 13.6577C10.438 13.9843 10.7265 14.2777 11.1407 14.312C11.3813 14.332 11.6653 14.1524 11.9066 13.5101C12.477 11.9922 13.6539 8.69295 14.0344 7.31498C14.0677 7.19425 14.0807 7.03451 14.0811 6.96345C14.0814 6.89238 14.0741 6.78975 13.9973 6.70118C13.9063 6.59628 13.7455 6.54921 13.672 6.53757C13.3376 6.48466 12.7948 6.57232 10.1528 7.16209Z" fill="white"/>
</svg>
